<?xml version="1.0" encoding="utf-8"?>
<!-- Generator: Adobe Illustrator 16.0.2, SVG Export Plug-In . SVG Version: 6.00 Build 0)  -->
<!DOCTYPE svg PUBLIC "-//W3C//DTD SVG 1.1//EN" "http://www.w3.org/Graphics/SVG/1.1/DTD/svg11.dtd">
<svg version="1.1" id="Слой_1" xmlns="http://www.w3.org/2000/svg" xmlns:xlink="http://www.w3.org/1999/xlink" x="0px" y="0px"
	 width="349px" height="124px" viewBox="0 0 349 124" enable-background="new 0 0 349 124" xml:space="preserve">
<g>
	<defs>
		<rect id="SVGID_1_" y="-4" width="1000" height="1000"/>
	</defs>
	<clipPath id="SVGID_2_">
		<use xlink:href="#SVGID_1_"  overflow="visible"/>
	</clipPath>
	
		<linearGradient id="SVGID_3_" gradientUnits="userSpaceOnUse" x1="-5.5771" y1="1001.1084" x2="-4.5776" y2="1001.1084" gradientTransform="matrix(56.3433 0 0 -56.3433 325.9375 56476.2383)">
		<stop  offset="0" style="stop-color:#4F2C5D"/>
		<stop  offset="0.0976" style="stop-color:#4F2C5D"/>
		<stop  offset="0.971" style="stop-color:#857CB9"/>
		<stop  offset="1" style="stop-color:#857CB9"/>
	</linearGradient>
	<path clip-path="url(#SVGID_2_)" fill="url(#SVGID_3_)" d="M67.355,32.639c-0.054,0.045-3.078,2.555-8.558,2.556
		c-3.95,0.001-9.149-1.312-15.365-5.728l-0.04-0.031c-0.003-0.019-6.605-5.745-13.913-5.724
		c-4.936,0.019-10.233,2.514-14.337,11.398l-0.454-0.208l0.458,0.198c-0.005,0.012-1.956,4.496-1.957,13.414
		c0.001,12.217,3.714,32.644,21.446,60.675c0.013,0.028,5.189,8.1,11.729,8.039c3.256-0.004,7-1.912,10.875-8.038
		c0.147-0.233,0.456-0.303,0.69-0.156c0.233,0.147,0.303,0.456,0.156,0.69c-3.953,6.281-8.029,8.508-11.722,8.504
		c-7.356-0.062-12.529-8.487-12.575-8.505C15.976,81.563,12.19,60.937,12.191,48.514c0-9.066,2.015-13.756,2.039-13.81l0.004-0.011
		c4.168-9.126,9.933-12,15.246-11.981c7.82,0.021,14.529,5.951,14.571,5.972l-0.33,0.376l0.29-0.408
		c6.083,4.318,11.061,5.542,14.786,5.543c5.163,0.001,7.885-2.349,7.917-2.323c0.212-0.177,0.527-0.149,0.704,0.063
		C67.595,32.146,67.567,32.462,67.355,32.639z"/>
	
		<linearGradient id="SVGID_4_" gradientUnits="userSpaceOnUse" x1="-6.1406" y1="1001.624" x2="-5.1406" y2="1001.624" gradientTransform="matrix(51.1775 0 0 -51.1775 363.625 51312.3555)">
		<stop  offset="0" style="stop-color:#4F2C5D"/>
		<stop  offset="0.0976" style="stop-color:#4F2C5D"/>
		<stop  offset="0.971" style="stop-color:#857CB9"/>
		<stop  offset="1" style="stop-color:#857CB9"/>
	</linearGradient>
	<path clip-path="url(#SVGID_2_)" fill="url(#SVGID_4_)" d="M57.688,24.926c6.183-4.513,12.015-6.486,17.273-6.486
		c15.188,0.039,25.075,16.293,25.1,33.573c0,4.924-0.803,9.946-2.526,14.726c-2.173,6.027-5.837,11.785-11.36,15.095
		c-3.81,2.279-8.215,3.209-12.623,3.209c-1.913,0-3.827-0.175-5.697-0.493c-6.175-1.05-11.971-3.524-17.668-5.958
		c-0.254-0.108-0.372-0.402-0.263-0.656c0.108-0.254,0.402-0.372,0.656-0.263c5.696,2.436,11.423,4.87,17.442,5.892
		c1.818,0.309,3.678,0.479,5.529,0.479c4.269,0,8.491-0.902,12.109-3.068c5.247-3.136,8.813-8.688,10.934-14.575
		c1.68-4.663,2.466-9.571,2.466-14.387c-0.003-16.971-9.742-32.54-24.1-32.573c-5.003,0-10.626,1.875-16.684,6.294
		c-0.223,0.163-0.536,0.114-0.699-0.109S57.465,25.088,57.688,24.926z"/>
	
		<line clip-path="url(#SVGID_2_)" fill="none" stroke="#562672" stroke-width="2" stroke-linecap="round" stroke-linejoin="round" stroke-miterlimit="10" x1="52.11" y1="73.005" x2="47.509" y2="80.923"/>
	<path clip-path="url(#SVGID_2_)" fill="#562671" d="M152,52.023c0.218,3.947,0.354,6.751,0.408,8.411
		c0.218,5.444,1.062,9.296,2.532,11.555c2.041,3.049,4.614,3.702,7.717,1.96c1.17-0.654,2.191-1.552,3.062-2.695
		c0.817-1.088,1.238-2.054,1.265-2.899c0.164-0.789,0.585-1.115,1.267-0.979c0.326,0.054,0.639,0.19,0.938,0.408
		c0.328,0.49,0.34,1.252,0.041,2.286c-0.272,1.089-0.816,2.164-1.632,3.225c-2.07,2.75-4.764,4.124-8.085,4.124
		c-3.103,0-5.458-1.619-7.064-4.858c-1.552-3.184-2.423-8.683-2.613-16.495c-0.055-2.477-0.04-5.417,0.041-8.819
		C149.959,43.218,150,41.136,150,41c0-7.921,0.979-14.196,2.939-18.823c0.707-1.633,1.919-2.925,3.634-3.879
		c2.041-1.143,4.178-1.252,6.41-0.327c2.477,1.008,4.042,2.587,4.696,4.737c0.516,1.714,0.504,2.844-0.041,3.388
		c-0.244,0.245-0.572,0.273-0.98,0.082c-0.435-0.19-0.639-0.503-0.612-0.939c0.054-1.333-0.355-2.477-1.225-3.43
		c-1.09-1.17-2.681-1.809-4.777-1.919c-2.831-0.163-4.805,1.334-5.921,4.491c-1.17,3.349-1.851,6.194-2.041,8.535
		c-0.219,2.531-0.327,6.899-0.327,13.105C151.755,47.165,151.837,49.166,152,52.023"/>
	<path clip-path="url(#SVGID_2_)" fill="#562671" d="M198.342,22.34c-0.218,3.158-0.327,5.186-0.327,6.083
		c0,1.117,0.041,3.294,0.123,6.533c0.082,4.193,0.136,7.54,0.163,10.044c0.108,8.656,0.163,13.393,0.163,14.209v7.105v5.511
		c0,3.131-0.122,4.846-0.367,5.145c-0.272,0.354-0.626,0.504-1.062,0.449c-0.463-0.082-0.79-0.367-0.979-0.857v-5.757l0.163-26.09
		c0.081-6.016,0.095-9.555,0.041-10.616c0.026,0.408,0.013-0.858-0.041-3.797c0-1.688-0.123-2.45-0.367-2.287
		c-0.545,0.3-1.797,3.049-3.757,8.248c-1.878,4.873-2.75,7.159-2.613,6.859c-1.089,2.505-1.933,3.756-2.531,3.756
		c-0.763,0-2.396-3.47-4.899-10.411c-2.423-6.777-3.797-9.595-4.124-8.452c-0.272,1.061-0.408,6.221-0.408,15.474l0.204,24.907
		l0.408,6.941c0,1.361-0.422,2.041-1.266,2.041c-0.598,0-0.994-0.449-1.183-1.348c-0.137-0.625-0.204-1.768-0.204-3.429
		l0.244-11.881l-0.326-15.924l0.245-19.762c0-4.844-0.028-7.104-0.082-6.777c0.082-0.544,0.422-0.816,1.02-0.816
		c0.599,0,0.981,0.176,1.144,0.53c0.027,0.082,0.449,1.334,1.265,3.757c0.925,2.668,1.634,4.64,2.124,5.92
		c2.095,5.363,3.443,8.915,4.042,10.656c0.598,1.715,1.006,2.805,1.225,3.266c0.435,0.844,0.774,1.021,1.021,0.532
		c1.144-2.096,2.137-4.301,2.98-6.615c1.878-5.171,2.926-8.111,3.144-8.819c0.245-0.817,0.681-2.395,1.307-4.736
		c0.545-1.988,0.898-3.212,1.062-3.675c0.245-0.571,0.694-0.844,1.347-0.816c0.627,0.027,1.021,0.258,1.186,0.693
		C198.531,18.406,198.505,19.81,198.342,22.34"/>
	<path clip-path="url(#SVGID_2_)" fill="#562671" d="M226.188,75.623c0,0.518-0.081,0.913-0.245,1.185
		c-0.271,0.435-0.667,0.68-1.184,0.734c-1.116,0.109-1.633-0.148-1.552-0.775c0.735-4.682,0.531-9.391-0.612-14.127
		c0-0.381-1.402-0.817-4.205-1.307c-2.804-0.516-5.146-0.312-7.023,0.613c-0.571,0.272-1.021,1.224-1.347,2.858
		c-0.763,3.511-1.185,6.288-1.266,8.329c-0.027,0.49-0.041,1.062-0.041,1.715c0.026,0.816,0.041,1.279,0.041,1.389
		c-0.027,0.843-0.191,1.265-0.49,1.265c-0.926,0-1.579-0.327-1.96-0.98c-0.245-0.408,0.19-3.988,1.307-10.739
		c0.19-1.224,0.626-4.532,1.307-9.92c0.626-5.2,1.17-9.065,1.633-11.596c0.19-1.198,0.925-6.016,2.205-14.454
		c0.326-2.286,0.585-3.783,0.775-4.491c0.218-0.925,0.505-2.014,0.857-3.267c0.844-2.994,1.606-4.491,2.287-4.491
		c0.789,0,1.47,0.831,2.041,2.491c1.062,3.076,1.77,5.702,2.123,7.88c0.108,0.571,0.49,2.653,1.144,6.247
		c0.49,2.722,0.762,4.423,0.816,5.103c0.055,0.599,0.218,2.097,0.49,4.492c0.354,3.102,0.639,5.674,0.857,7.716
		c0.843,8.058,1.524,15.829,2.041,23.314V75.623z M220.472,36.426c-1.334-9.826-2.546-14.576-3.634-14.249
		c-0.272,0.055-0.816,2.464-1.633,7.227c-0.082,0.517-0.409,2.177-0.98,4.981c-0.599,2.913-1.075,5.321-1.429,7.227
		c-0.354,2.041-0.763,4.818-1.226,8.329c-0.381,3.348-0.64,5.376-0.775,6.084c-0.245,1.142-0.341,1.973-0.286,2.49
		c0.055,0.517,0.286,0.804,0.694,0.857c7.35,0.163,11.024-0.122,11.024-0.857C222.309,53.099,221.724,45.736,220.472,36.426"/>
	<path clip-path="url(#SVGID_2_)" fill="#562671" d="M236.109,19.481c0.026,0.708,0.014,3.553-0.041,8.534l-0.245,12.044
		l-0.326,25.07c0,3.158,0.041,4.832,0.122,5.022c0.136,0.382,0.449-0.259,0.939-1.919c0.162-0.544,0.354-1.279,0.571-2.205
		c0.3-1.115,0.477-1.768,0.531-1.96c0.054-0.217,0.408-1.619,1.062-4.205c0.653-2.531,1.238-4.722,1.756-6.573
		c0.435-1.66,1.047-3.865,1.837-6.615c0.708-2.504,1.155-4.11,1.348-4.818c0.245-0.898,1.088-4.41,2.531-10.534
		c1.442-6.043,2.19-9.159,2.245-9.349c0.79-2.831,1.565-4.233,2.328-4.206c0.869,0,1.307,1.102,1.307,3.307
		c0,1.171,0.026,6.029,0.081,14.576v10.166l0.123,27.765c0,1.905-0.096,3.035-0.286,3.389c-0.19,0.299-0.531,0.435-1.021,0.408
		c-0.517-0.054-0.912-0.299-1.184-0.735c-0.027-0.082,0-3.715,0.082-10.902c0.054-3.619,0.081-7.58,0.081-11.881V32.506
		c0-0.654,0.068-2.082,0.204-4.287c0.109-1.851,0.137-3.062,0.082-3.634c-0.082-0.707-0.313-0.544-0.694,0.49
		c-0.3,0.844-0.572,1.811-0.816,2.9c-0.055,0.217-1.034,5.048-2.939,14.494c-0.382,1.96-3.104,11.99-8.166,30.091
		c-0.899,3.24-1.62,4.859-2.164,4.859c-0.763,0-1.279-0.626-1.552-1.878c-0.081-0.327-0.177-1.607-0.285-3.838
		c-0.056-0.626-0.056-1.579,0-2.858c0.081-1.661,0.122-2.695,0.122-3.104c0-0.544-0.014-1.686-0.041-3.43
		c-0.027-1.55-0.027-2.639,0-3.265c0.136-4.491,0.204-7.281,0.204-8.37c-0.081-18.483-0.122-28.499-0.122-30.051
		c0-1.823,0.435-2.735,1.307-2.735C235.769,17.891,236.109,18.42,236.109,19.481 M247.991,4.58
		c-0.627-0.108-1.321,0.681-2.083,2.368c-0.571,1.443-1.143,2.845-1.715,4.205c-0.436,1.144-0.723,1.688-0.857,1.633
		c-0.163,0-1.156-1.715-2.98-5.144c-0.816-1.416-1.497-2.354-2.041-2.817c-0.49-0.463-0.885-0.463-1.185,0
		c-0.137,0.191,0.027,0.803,0.49,1.837c0.136,0.3,0.367,0.735,0.694,1.307c2.667,4.845,4.191,7.404,4.572,7.675
		c0.164,0.137,0.327,0.191,0.49,0.164h0.041c0.299,0,0.571-0.205,0.816-0.613c0.163-0.245,0.299-0.475,0.408-0.694
		c0.244-0.462,0.49-0.925,0.735-1.388c2.204-4.328,3.334-6.791,3.389-7.39C248.849,5.016,248.589,4.635,247.991,4.58"/>
	<path clip-path="url(#SVGID_2_)" fill="#562671" d="M265.426,30.833c-0.109-4.572,0.462-7.702,1.715-9.391
		c1.496-1.986,3.77-3.143,6.818-3.47c4.137-0.435,6.764,0.068,7.88,1.51c0.626,0.817,0.939,2.968,0.939,6.452
		c0,0.599,0.095,2.477,0.285,5.634c0.19,3.403,0.313,5.785,0.368,7.146c0.136,5.906,0.204,11.595,0.204,17.066
		c0,3.403-0.027,7.05-0.082,10.943c0,1.089-0.014,2.313-0.041,3.674c-0.027,1.089-0.04,1.702-0.04,1.837
		c0,0.328,0.026,0.953,0.081,1.878c0.055,0.953,0.082,1.593,0.082,1.919c0,0.437-0.15,0.79-0.449,1.063
		c-0.245,0.244-0.477,0.352-0.694,0.326c-0.816-0.055-1.266-0.449-1.348-1.184c-0.055-0.653-0.055-2.205,0-4.655
		c0.327-14.998,0.436-23.763,0.327-26.294c-0.354-7.758-0.545-11.704-0.571-11.841c-0.082-0.761-0.123-1.945-0.123-3.551
		c0.027-2.069,0.027-3.403,0-4.002c-0.08-3.076-0.395-4.873-0.938-5.39c-0.735-0.707-2.858-0.816-6.37-0.326
		c-2.041,0.3-3.62,1.198-4.736,2.694c-0.653,0.872-1.021,2.001-1.103,3.39c-0.027,0.381-0.04,0.966-0.04,1.755
		c0,0.762-0.027,1.334-0.082,1.714c-0.137,1.471-0.137,4.424,0,8.861l0.041,4.777c0.136,5.117,0.177,8.819,0.122,11.106
		c0,0.79-0.027,2.722-0.081,5.797c-0.027,2.777-0.056,5.159-0.082,7.146c-0.027,2.231-0.681,4.232-1.96,6.002
		c-0.844,1.116-1.688,1.905-2.531,2.368c-1.905,1.062-3.212,1.592-3.92,1.592c-1.552,0-2-0.422-1.347-1.266
		c0.217-0.271,0.789-0.638,1.715-1.102c1.197-0.572,2.066-1.062,2.612-1.47c2.286-1.605,3.39-3.933,3.308-6.981
		c-0.027-1.852,0.014-5.186,0.122-10.004c-0.027-9.772-0.04-14.903-0.04-15.393L265.426,30.833z"/>
	<path clip-path="url(#SVGID_2_)" fill="#847CB9" d="M293.878,39.389c0,0.81-0.031,4.06-0.093,9.753l-0.233,13.766
		c-0.25,5.35-0.218,8.461,0.093,9.332c0.124,0.436,0.622-0.591,1.493-3.08c1.338-3.919,1.976-5.786,1.913-5.599
		c0.28-0.747,0.918-2.691,1.914-5.833c0.995-3.08,1.663-5.055,2.006-5.927c0.497-1.243,1.136-2.986,1.913-5.225
		c0.716-2.116,1.182-3.438,1.4-3.967c0.124-0.248,0.325-0.762,0.606-1.539c0.28-0.747,0.514-1.307,0.7-1.681
		c0.559-1.307,1.103-1.96,1.633-1.96c0.497,0,0.777,0.405,0.84,1.214c0.03,0.467,0.03,1.369,0,2.706
		c0,1.338,0.17,6.829,0.514,16.472l-0.187,15.258c0,2.272-0.063,3.532-0.188,3.781c-0.187,0.373-0.451,0.559-0.793,0.559
		c-0.404,0-0.746-0.249-1.026-0.747c-0.031-0.061,0-4.215,0.094-12.458c0.062-3.763,0.015-7.077-0.141-9.939
		c0-6.159,0.016-9.161,0.047-9.006c-0.063-0.715-0.265-0.528-0.606,0.559c-0.653,1.992-1.059,3.143-1.214,3.454
		c-1.431,3.297-2.769,6.766-4.013,10.406c-0.218,0.591-0.918,2.644-2.1,6.159c-0.871,2.613-1.54,4.542-2.008,5.786
		c-1.337,3.64-2.441,5.46-3.312,5.46c-0.653,0-1.09-0.56-1.307-1.681c-0.031-0.31-0.125-1.943-0.28-4.899
		c-0.063-0.715-0.063-1.975,0-3.779c0.094-2.333,0.141-3.687,0.141-4.06c0.092-14.154,0.14-21.449,0.14-21.885
		c0-1.369,0.062-2.24,0.187-2.613c0.124-0.404,0.388-0.606,0.793-0.606C293.489,37.57,293.847,38.176,293.878,39.389"/>
	<path clip-path="url(#SVGID_2_)" fill="#562671" d="M331.255,75.787c-2.069-4.11-4.124-8.969-6.166-14.576
		c-3.756-10.262-5.743-15.379-5.961-15.353c-0.381,0-0.545,0.953-0.49,2.859c0.027,0.435,0.068,1.279,0.123,2.531
		c0.054,1.089,0.082,1.878,0.082,2.368c-0.028,7.976-0.123,12.998-0.286,15.067c-0.055,0.598-0.068,1.497-0.041,2.694v2.858
		c-0.055,2.123-0.367,3.185-0.939,3.185c-0.789,0-1.184-1.279-1.184-3.838c0-0.599,0.041-2.042,0.122-4.328
		c0.108-2.422,0.177-4.778,0.204-7.064c0.027-1.769,0.082-4.273,0.164-7.512c0.108-2.995,0.163-4.75,0.163-5.267
		c0-0.599-0.109-5.676-0.327-15.229c-0.218-9.473-0.326-14.386-0.326-14.741c0-0.761,0.395-1.278,1.184-1.55
		c0.708-0.218,1.211-0.096,1.511,0.367c0.055,0.082,0.082,3.008,0.082,8.778c-0.953,10.234-1.075,15.325-0.367,15.271
		c0.544-0.083,2.218-2.941,5.021-8.575c0.735-1.497,1.606-3.266,2.613-5.308c1.034-2.123,1.714-3.511,2.042-4.164
		c2.068-4.246,3.43-6.369,4.083-6.369c0.789,0,1.184,0.408,1.184,1.224c-0.027,0.382-0.395,1.144-1.103,2.286
		c-0.844,1.47-1.334,2.355-1.47,2.655c-0.218,0.462-0.749,1.415-1.593,2.858c-0.816,1.442-1.306,2.354-1.471,2.735
		c-4.627,10.017-6.954,14.808-6.98,14.372c0.026,0.899,1.741,5.879,5.145,14.944c1.144,3.076,2.735,6.655,4.777,10.738
		c1.741,3.43,2.64,5.376,2.694,5.839c0.19,1.089-0.109,1.715-0.898,1.878C332.384,77.501,331.853,76.957,331.255,75.787"/>
	<polygon clip-path="url(#SVGID_2_)" fill="#552670" points="157.444,102.866 156.254,102.866 156.254,100.148 149.777,100.148 
		149.777,92.287 150.968,92.287 150.968,99.123 155.143,99.123 155.143,92.287 156.332,92.287 156.332,99.123 157.444,99.123 	"/>
	<path clip-path="url(#SVGID_2_)" fill="#552670" d="M162.293,100.291c-1.161,0-2.078-0.354-2.751-1.062
		c-0.671-0.708-1.008-1.69-1.008-2.948c0-1.267,0.313-2.273,0.938-3.02c0.623-0.745,1.46-1.119,2.514-1.119
		c0.985,0,1.764,0.325,2.337,0.973c0.574,0.647,0.861,1.502,0.861,2.565v0.752h-5.415c0.023,0.924,0.257,1.625,0.699,2.102
		c0.442,0.478,1.065,0.717,1.868,0.717c0.848,0,1.684-0.177,2.512-0.53v1.06c-0.422,0.183-0.82,0.313-1.195,0.392
		C163.277,100.251,162.824,100.291,162.293,100.291 M161.971,93.139c-0.631,0-1.134,0.207-1.51,0.618
		c-0.375,0.411-0.597,0.979-0.663,1.707h4.111c0-0.751-0.168-1.326-0.503-1.726S162.592,93.139,161.971,93.139"/>
	<polygon clip-path="url(#SVGID_2_)" fill="#552670" points="168.404,92.287 168.404,95.578 172.809,95.578 172.809,92.287 
		174,92.287 174,100.147 172.809,100.147 172.809,96.604 168.404,96.604 168.404,100.147 167.213,100.147 167.213,92.287 	"/>
	<polygon clip-path="url(#SVGID_2_)" fill="#552670" points="181.824,93.304 179.271,93.304 179.271,100.148 178.081,100.148 
		178.081,93.304 175.556,93.304 175.556,92.287 181.824,92.287 	"/>
	<path clip-path="url(#SVGID_2_)" fill="#552670" d="M187.039,100.291c-0.512,0-0.979-0.094-1.402-0.284
		c-0.423-0.188-0.778-0.479-1.066-0.871h-0.086c0.058,0.459,0.086,0.895,0.086,1.306v3.235h-1.19V92.286h0.968l0.165,1.076h0.057
		c0.307-0.43,0.662-0.742,1.069-0.933c0.407-0.191,0.873-0.287,1.399-0.287c1.042,0,1.847,0.356,2.414,1.069
		c0.566,0.712,0.85,1.712,0.85,2.997c0,1.292-0.288,2.295-0.864,3.01C188.861,99.934,188.063,100.291,187.039,100.291
		 M186.867,93.154c-0.804,0-1.385,0.222-1.743,0.666c-0.358,0.446-0.542,1.153-0.553,2.125v0.264c0,1.106,0.184,1.896,0.553,2.372
		c0.368,0.475,0.958,0.713,1.771,0.713c0.68,0,1.212-0.275,1.596-0.824c0.386-0.551,0.578-1.308,0.578-2.274
		c0-0.981-0.192-1.733-0.578-2.255C188.107,93.416,187.564,93.154,186.867,93.154"/>
	<path clip-path="url(#SVGID_2_)" fill="#552670" d="M203.027,102.865h-1.154v-2.718h-5.494v2.718h-1.148v-3.744h0.616
		c0.642-0.871,1.144-1.891,1.507-3.062c0.363-1.172,0.552-2.43,0.567-3.773h3.98v6.835h1.126V102.865z M200.754,99.122v-5.896
		h-1.765c-0.063,1.062-0.267,2.136-0.613,3.225c-0.348,1.087-0.778,1.978-1.295,2.671H200.754z"/>
	<path clip-path="url(#SVGID_2_)" fill="#552670" d="M207.918,100.291c-1.161,0-2.077-0.354-2.75-1.062
		c-0.672-0.708-1.009-1.69-1.009-2.948c0-1.267,0.313-2.273,0.938-3.02c0.624-0.745,1.461-1.119,2.515-1.119
		c0.984,0,1.764,0.325,2.337,0.973c0.574,0.647,0.861,1.502,0.861,2.565v0.752h-5.415c0.023,0.924,0.257,1.625,0.699,2.102
		s1.064,0.717,1.867,0.717c0.848,0,1.685-0.177,2.512-0.53v1.06c-0.422,0.183-0.819,0.313-1.194,0.392
		C208.901,100.251,208.449,100.291,207.918,100.291 M207.596,93.139c-0.63,0-1.134,0.207-1.509,0.618
		c-0.376,0.411-0.597,0.979-0.664,1.707h4.11c0-0.751-0.168-1.326-0.503-1.726S208.217,93.139,207.596,93.139"/>
	<polygon clip-path="url(#SVGID_2_)" fill="#552670" points="218.14,93.304 215.587,93.304 215.587,100.148 214.396,100.148 
		214.396,93.304 211.871,93.304 211.871,92.287 218.14,92.287 	"/>
	<path clip-path="url(#SVGID_2_)" fill="#552670" d="M222.838,100.291c-1.139,0-2.02-0.35-2.643-1.05
		c-0.624-0.701-0.937-1.691-0.937-2.974c0-1.315,0.317-2.331,0.95-3.048c0.634-0.717,1.536-1.076,2.708-1.076
		c0.378,0,0.756,0.041,1.133,0.122c0.378,0.081,0.675,0.177,0.89,0.287l-0.366,1.011c-0.263-0.105-0.549-0.192-0.86-0.261
		c-0.311-0.069-0.585-0.104-0.824-0.104c-1.598,0-2.396,1.019-2.396,3.056c0,0.965,0.195,1.707,0.585,2.223
		c0.39,0.516,0.968,0.774,1.732,0.774c0.655,0,1.327-0.14,2.015-0.423v1.055C224.299,100.155,223.637,100.291,222.838,100.291"/>
	<polygon clip-path="url(#SVGID_2_)" fill="#552670" points="231.272,92.287 232.578,92.287 229.187,96.081 232.857,100.147 
		231.466,100.147 227.879,96.167 227.879,100.147 226.689,100.147 226.689,92.287 227.879,92.287 227.879,96.109 	"/>
	<path clip-path="url(#SVGID_2_)" fill="#552670" d="M241.1,96.209c0,1.282-0.323,2.283-0.969,3.003
		c-0.645,0.719-1.537,1.078-2.675,1.078c-0.703,0-1.327-0.165-1.872-0.494c-0.546-0.33-0.965-0.804-1.262-1.42
		c-0.298-0.617-0.445-1.339-0.445-2.167c0-1.281,0.32-2.28,0.961-2.994c0.641-0.715,1.53-1.073,2.668-1.073
		c1.101,0,1.974,0.367,2.622,1.098C240.775,93.972,241.1,94.962,241.1,96.209 M235.11,96.209c0,1.004,0.201,1.77,0.603,2.296
		c0.401,0.525,0.993,0.789,1.771,0.789c0.779,0,1.372-0.262,1.775-0.786c0.404-0.524,0.606-1.291,0.606-2.299
		c0-0.999-0.202-1.758-0.606-2.278c-0.403-0.519-1-0.777-1.789-0.777c-0.78,0-1.368,0.255-1.765,0.768
		C235.309,94.434,235.11,95.196,235.11,96.209"/>
	<path clip-path="url(#SVGID_2_)" fill="#552670" d="M244.307,92.287v4.984l-0.051,1.304l-0.021,0.41l4.253-6.699h1.485v7.861
		h-1.111v-4.806l0.021-0.947l0.036-0.933l-4.246,6.686h-1.485v-7.861H244.307z M246.551,91.246c-0.885,0-1.529-0.17-1.937-0.513
		c-0.406-0.342-0.633-0.905-0.681-1.688h1.118c0.043,0.497,0.174,0.843,0.392,1.039c0.217,0.197,0.597,0.294,1.137,0.294
		c0.492,0,0.856-0.105,1.094-0.315c0.236-0.21,0.382-0.55,0.434-1.018h1.127c-0.059,0.755-0.3,1.31-0.725,1.667
		C248.083,91.068,247.431,91.246,246.551,91.246"/>
	<polygon clip-path="url(#SVGID_2_)" fill="#552670" points="257.433,92.287 257.433,97.271 257.381,98.577 257.36,98.986 
		261.613,92.287 263.099,92.287 263.099,100.147 261.986,100.147 261.986,95.341 262.008,94.396 262.044,93.462 257.797,100.147 
		256.313,100.147 256.313,92.287 	"/>
	<path clip-path="url(#SVGID_2_)" fill="#552670" d="M275.815,94.259c0,0.511-0.147,0.899-0.441,1.166
		c-0.293,0.265-0.707,0.444-1.237,0.535v0.064c0.67,0.091,1.159,0.286,1.467,0.587c0.309,0.302,0.463,0.719,0.463,1.25
		c0,0.731-0.27,1.296-0.807,1.693c-0.538,0.397-1.324,0.595-2.356,0.595h-3.465v-7.861h3.451
		C274.84,92.287,275.815,92.944,275.815,94.259 M274.653,94.374c0-0.383-0.147-0.654-0.44-0.814c-0.295-0.16-0.74-0.241-1.338-0.241
		h-2.246v2.217h2.016c0.736,0,1.256-0.09,1.558-0.272C274.503,95.081,274.653,94.785,274.653,94.374 M274.875,97.781
		c0-0.425-0.16-0.735-0.482-0.928c-0.324-0.194-0.858-0.291-1.604-0.291h-2.16v2.589h2.188
		C274.189,99.151,274.875,98.694,274.875,97.781"/>
	<path clip-path="url(#SVGID_2_)" fill="#552670" d="M279.294,95.55c1.487,0,2.23-0.411,2.23-1.234c0-0.775-0.603-1.162-1.808-1.162
		c-0.368,0-0.702,0.033-1.004,0.1c-0.301,0.067-0.695,0.201-1.184,0.402l-0.423-0.968c0.813-0.363,1.7-0.545,2.661-0.545
		c0.904,0,1.616,0.185,2.137,0.557c0.521,0.37,0.783,0.875,0.783,1.517c0,0.88-0.49,1.456-1.472,1.728v0.057
		c0.603,0.177,1.043,0.429,1.32,0.757s0.416,0.738,0.416,1.23c0,0.727-0.293,1.293-0.878,1.696
		c-0.587,0.405-1.396,0.605-2.428,0.605c-1.135,0-2.009-0.169-2.626-0.509v-1.09c0.875,0.412,1.76,0.617,2.653,0.617
		c0.688,0,1.209-0.118,1.561-0.355s0.527-0.577,0.527-1.022c0-0.913-0.744-1.371-2.23-1.371h-1.09v-1.01H279.294z"/>
	<path clip-path="url(#SVGID_2_)" fill="#552670" d="M288.548,100.291c-0.513,0-0.979-0.094-1.402-0.284
		c-0.423-0.188-0.778-0.479-1.065-0.871h-0.086c0.058,0.459,0.086,0.895,0.086,1.306v3.235h-1.191V92.286h0.969l0.165,1.076h0.058
		c0.306-0.43,0.662-0.742,1.068-0.933c0.406-0.191,0.873-0.287,1.399-0.287c1.042,0,1.847,0.356,2.414,1.069
		c0.566,0.712,0.85,1.712,0.85,2.997c0,1.292-0.288,2.295-0.865,3.01C290.37,99.934,289.57,100.291,288.548,100.291 M288.376,93.154
		c-0.804,0-1.386,0.222-1.743,0.666c-0.358,0.446-0.543,1.153-0.553,2.125v0.264c0,1.106,0.184,1.896,0.553,2.372
		c0.368,0.475,0.958,0.713,1.771,0.713c0.679,0,1.212-0.275,1.597-0.824c0.385-0.551,0.577-1.308,0.577-2.274
		c0-0.981-0.192-1.733-0.577-2.255C289.615,93.416,289.073,93.154,288.376,93.154"/>
	<path clip-path="url(#SVGID_2_)" fill="#552670" d="M300.677,96.209c0,1.282-0.323,2.283-0.969,3.003
		c-0.646,0.719-1.537,1.078-2.675,1.078c-0.703,0-1.327-0.165-1.872-0.494c-0.546-0.33-0.966-0.804-1.264-1.42
		c-0.296-0.617-0.444-1.339-0.444-2.167c0-1.281,0.32-2.28,0.962-2.994c0.641-0.715,1.53-1.073,2.668-1.073
		c1.1,0,1.974,0.367,2.621,1.098C300.353,93.972,300.677,94.962,300.677,96.209 M294.688,96.209c0,1.004,0.201,1.77,0.603,2.296
		c0.4,0.525,0.992,0.789,1.771,0.789s1.372-0.262,1.775-0.786c0.404-0.524,0.606-1.291,0.606-2.299c0-0.999-0.202-1.758-0.606-2.278
		c-0.403-0.519-1-0.777-1.79-0.777c-0.779,0-1.368,0.255-1.764,0.768C294.886,94.434,294.688,95.196,294.688,96.209"/>
	<path clip-path="url(#SVGID_2_)" fill="#552670" d="M305.906,100.291c-1.14,0-2.02-0.35-2.644-1.05
		c-0.624-0.701-0.937-1.691-0.937-2.974c0-1.315,0.316-2.331,0.95-3.048s1.536-1.076,2.708-1.076c0.378,0,0.755,0.041,1.133,0.122
		s0.675,0.177,0.891,0.287l-0.367,1.011c-0.263-0.105-0.549-0.192-0.86-0.261c-0.31-0.069-0.585-0.104-0.824-0.104
		c-1.598,0-2.396,1.019-2.396,3.056c0,0.965,0.195,1.707,0.585,2.223c0.391,0.516,0.968,0.774,1.732,0.774
		c0.655,0,1.327-0.14,2.015-0.423v1.055C307.366,100.155,306.704,100.291,305.906,100.291"/>
	<path clip-path="url(#SVGID_2_)" fill="#552670" d="M315.617,100.147h-1.205v-6.843h-2.36c-0.128,1.702-0.308,3.054-0.538,4.053
		c-0.229,1-0.526,1.732-0.893,2.195c-0.365,0.464-0.831,0.696-1.395,0.696c-0.259,0-0.464-0.028-0.617-0.086V99.28
		c0.105,0.029,0.225,0.043,0.358,0.043c0.55,0,0.988-0.581,1.313-1.743c0.325-1.162,0.571-2.926,0.738-5.293h4.598V100.147z"/>
	<path clip-path="url(#SVGID_2_)" fill="#552670" d="M324.928,96.209c0,1.282-0.323,2.283-0.969,3.003
		c-0.646,0.719-1.537,1.078-2.675,1.078c-0.703,0-1.327-0.165-1.872-0.494c-0.546-0.33-0.966-0.804-1.262-1.42
		c-0.299-0.617-0.445-1.339-0.445-2.167c0-1.281,0.32-2.28,0.961-2.994c0.641-0.715,1.53-1.073,2.668-1.073
		c1.101,0,1.974,0.367,2.622,1.098C324.604,93.972,324.928,94.962,324.928,96.209 M318.938,96.209c0,1.004,0.201,1.77,0.603,2.296
		c0.4,0.525,0.993,0.789,1.771,0.789c0.779,0,1.372-0.262,1.775-0.786c0.404-0.524,0.606-1.291,0.606-2.299
		c0-0.999-0.202-1.758-0.606-2.278c-0.403-0.519-1-0.777-1.789-0.777c-0.78,0-1.368,0.255-1.765,0.768
		C319.137,94.434,318.938,95.196,318.938,96.209"/>
	<path clip-path="url(#SVGID_2_)" fill="#552670" d="M328.135,92.287v4.984l-0.051,1.304l-0.021,0.41l4.253-6.699h1.485v7.861
		h-1.111v-4.806l0.021-0.947l0.036-0.933l-4.246,6.686h-1.485v-7.861H328.135z M330.379,91.246c-0.885,0-1.53-0.17-1.937-0.513
		s-0.633-0.905-0.681-1.688h1.118c0.043,0.497,0.173,0.843,0.392,1.039c0.217,0.197,0.597,0.294,1.137,0.294
		c0.492,0,0.856-0.105,1.094-0.315c0.236-0.21,0.382-0.55,0.434-1.018h1.127c-0.059,0.755-0.3,1.31-0.725,1.667
		C331.911,91.068,331.259,91.246,330.379,91.246"/>
	<path clip-path="url(#SVGID_2_)" fill="#552670" d="M152.581,117.455c-1.027,0-1.823-0.338-2.386-1.014
		c-0.563-0.677-0.846-1.633-0.846-2.871c0-1.269,0.286-2.25,0.859-2.941c0.572-0.693,1.387-1.04,2.444-1.04
		c0.34,0,0.682,0.04,1.023,0.118c0.34,0.078,0.609,0.171,0.803,0.277l-0.332,0.976c-0.237-0.102-0.496-0.186-0.776-0.252
		c-0.281-0.067-0.529-0.101-0.745-0.101c-1.442,0-2.163,0.983-2.163,2.95c0,0.932,0.175,1.648,0.527,2.145
		c0.353,0.499,0.875,0.748,1.564,0.748c0.591,0,1.198-0.135,1.818-0.408v1.019C153.899,117.323,153.302,117.455,152.581,117.455"/>
	<polygon clip-path="url(#SVGID_2_)" fill="#552670" points="160.844,110.711 158.539,110.711 158.539,117.317 157.464,117.317 
		157.464,110.711 155.185,110.711 155.185,109.729 160.844,109.729 	"/>
	<path clip-path="url(#SVGID_2_)" fill="#552670" d="M168.375,113.515c0,1.238-0.292,2.204-0.875,2.898
		c-0.582,0.694-1.388,1.041-2.415,1.041c-0.635,0-1.198-0.159-1.69-0.477c-0.492-0.318-0.872-0.776-1.14-1.371
		s-0.402-1.292-0.402-2.091c0-1.236,0.289-2.201,0.868-2.89c0.578-0.691,1.382-1.036,2.409-1.036c0.993,0,1.783,0.354,2.367,1.061
		C168.082,111.355,168.375,112.311,168.375,113.515 M162.968,113.515c0,0.97,0.182,1.708,0.544,2.216
		c0.362,0.507,0.897,0.762,1.599,0.762c0.705,0,1.239-0.254,1.604-0.759c0.365-0.506,0.547-1.246,0.547-2.219
		c0-0.964-0.183-1.697-0.547-2.198c-0.365-0.5-0.903-0.75-1.616-0.75c-0.704,0-1.235,0.247-1.593,0.741
		C163.146,111.801,162.968,112.538,162.968,113.515"/>
	<path clip-path="url(#SVGID_2_)" fill="#552670" d="M173.944,116.208l0.2-0.643l0.279-0.818l1.924-5.005h1.365v7.574h-0.952v-6.265
		l-0.13,0.4l-0.375,1.061l-1.832,4.804h-0.9l-1.834-4.818c-0.228-0.62-0.385-1.101-0.472-1.447v6.265h-0.958v-7.574h1.313
		l1.858,4.812C173.618,115.062,173.789,115.613,173.944,116.208"/>
	<path clip-path="url(#SVGID_2_)" fill="#552670" d="M184.369,117.316l-0.212-1.079h-0.053c-0.354,0.475-0.707,0.796-1.059,0.965
		c-0.352,0.168-0.791,0.252-1.317,0.252c-0.704,0-1.256-0.192-1.655-0.582c-0.399-0.388-0.599-0.939-0.599-1.655
		c0-1.532,1.146-2.334,3.439-2.409l1.205-0.041v-0.471c0-0.595-0.121-1.036-0.36-1.319c-0.24-0.284-0.623-0.427-1.148-0.427
		c-0.592,0-1.263,0.194-2.008,0.583l-0.331-0.879c0.35-0.203,0.732-0.363,1.151-0.478c0.417-0.115,0.833-0.173,1.252-0.173
		c0.846,0,1.473,0.201,1.881,0.603c0.408,0.402,0.612,1.045,0.612,1.932v5.178H184.369z M181.941,116.506
		c0.67,0,1.195-0.196,1.577-0.588c0.383-0.393,0.574-0.942,0.574-1.648v-0.685l-1.075,0.049c-0.855,0.031-1.472,0.173-1.849,0.425
		c-0.378,0.252-0.566,0.643-0.566,1.174c0,0.416,0.117,0.731,0.353,0.949C181.19,116.398,181.519,116.506,181.941,116.506"/>
	<polygon clip-path="url(#SVGID_2_)" fill="#552670" points="192.167,110.711 189.861,110.711 189.861,117.317 188.787,117.317 
		188.787,110.711 186.507,110.711 186.507,109.729 192.167,109.729 	"/>
	<path clip-path="url(#SVGID_2_)" fill="#552670" d="M199.698,113.515c0,1.238-0.292,2.204-0.874,2.898
		c-0.583,0.694-1.388,1.041-2.415,1.041c-0.635,0-1.198-0.159-1.691-0.477c-0.492-0.318-0.871-0.776-1.139-1.371
		c-0.269-0.595-0.401-1.292-0.401-2.091c0-1.236,0.288-2.201,0.867-2.89c0.578-0.691,1.382-1.036,2.409-1.036
		c0.992,0,1.781,0.354,2.367,1.061C199.406,111.355,199.698,112.311,199.698,113.515 M194.291,113.515
		c0,0.97,0.182,1.708,0.544,2.216c0.362,0.507,0.896,0.762,1.599,0.762c0.704,0,1.239-0.254,1.604-0.759
		c0.365-0.506,0.548-1.246,0.548-2.219c0-0.964-0.183-1.697-0.548-2.198c-0.364-0.5-0.903-0.75-1.615-0.75
		c-0.704,0-1.236,0.247-1.593,0.741C194.47,111.801,194.291,112.538,194.291,113.515"/>
	<path clip-path="url(#SVGID_2_)" fill="#552670" d="M206.874,117.316h-1.089v-6.605h-2.13c-0.115,1.643-0.278,2.947-0.486,3.912
		c-0.208,0.965-0.475,1.671-0.806,2.119c-0.33,0.448-0.751,0.672-1.261,0.672c-0.231,0-0.417-0.028-0.556-0.083v-0.852
		c0.095,0.028,0.201,0.042,0.324,0.042c0.495,0,0.892-0.561,1.185-1.682c0.294-1.122,0.516-2.824,0.667-5.109h4.151V117.316z"/>
	<path clip-path="url(#SVGID_2_)" fill="#552670" d="M215.279,113.515c0,1.238-0.292,2.204-0.875,2.898
		c-0.582,0.694-1.387,1.041-2.415,1.041c-0.635,0-1.198-0.159-1.69-0.477c-0.492-0.318-0.872-0.776-1.14-1.371
		s-0.402-1.292-0.402-2.091c0-1.236,0.291-2.201,0.869-2.89c0.579-0.691,1.382-1.036,2.409-1.036c0.993,0,1.781,0.354,2.365,1.061
		C214.986,111.355,215.279,112.311,215.279,113.515 M209.872,113.515c0,0.97,0.181,1.708,0.543,2.216
		c0.361,0.507,0.896,0.762,1.601,0.762c0.703,0,1.237-0.254,1.602-0.759c0.365-0.506,0.548-1.246,0.548-2.219
		c0-0.964-0.183-1.697-0.548-2.198c-0.364-0.5-0.902-0.75-1.615-0.75c-0.704,0-1.235,0.247-1.594,0.741
		C210.051,111.801,209.872,112.538,209.872,113.515"/>
	<polygon clip-path="url(#SVGID_2_)" fill="#552670" points="221.438,110.711 218.238,110.711 218.238,117.317 217.163,117.317 
		217.163,109.729 221.438,109.729 	"/>
	<polygon clip-path="url(#SVGID_2_)" fill="#552670" points="223.854,109.729 223.854,114.54 223.808,115.8 223.788,116.195 
		227.628,109.729 228.969,109.729 228.969,117.316 227.965,117.316 227.965,112.677 227.984,111.765 228.017,110.863 
		224.183,117.316 222.842,117.316 222.842,109.729 	"/>
	<path clip-path="url(#SVGID_2_)" fill="#552670" d="M232.193,109.729v2.77c0,0.885,0.472,1.33,1.418,1.33
		c0.393,0,0.769-0.065,1.128-0.195c0.357-0.129,0.763-0.348,1.216-0.657v-3.247h1.076v7.587h-1.076v-3.434
		c-0.453,0.333-0.872,0.566-1.259,0.702c-0.387,0.136-0.823,0.205-1.312,0.205c-0.708,0-1.263-0.198-1.664-0.595
		c-0.401-0.398-0.603-0.936-0.603-1.613v-2.853H232.193z"/>
	<path clip-path="url(#SVGID_2_)" fill="#552670" d="M242.307,117.455c-1.047,0-1.875-0.341-2.482-1.024
		c-0.606-0.684-0.91-1.631-0.91-2.846c0-1.223,0.282-2.194,0.847-2.915c0.562-0.719,1.319-1.08,2.269-1.08
		c0.89,0,1.593,0.314,2.11,0.939s0.778,1.45,0.778,2.476v0.726h-4.89c0.022,0.892,0.233,1.567,0.631,2.029
		c0.4,0.461,0.961,0.692,1.687,0.692c0.766,0,1.521-0.171,2.268-0.512v1.023c-0.381,0.176-0.739,0.302-1.078,0.378
		C243.195,117.417,242.787,117.455,242.307,117.455 M242.016,110.552c-0.569,0-1.023,0.199-1.362,0.597
		c-0.339,0.396-0.539,0.946-0.599,1.648h3.711c0-0.725-0.151-1.28-0.455-1.666C243.009,110.745,242.578,110.552,242.016,110.552"/>
	<path clip-path="url(#SVGID_2_)" fill="#552670" d="M249.586,117.455c-1.027,0-1.822-0.338-2.386-1.014
		c-0.563-0.677-0.846-1.633-0.846-2.871c0-1.269,0.286-2.25,0.859-2.941c0.571-0.693,1.386-1.04,2.443-1.04
		c0.341,0,0.683,0.04,1.023,0.118s0.609,0.171,0.803,0.277l-0.331,0.976c-0.236-0.102-0.496-0.186-0.776-0.252
		c-0.279-0.067-0.528-0.101-0.744-0.101c-1.442,0-2.164,0.983-2.164,2.95c0,0.932,0.177,1.648,0.528,2.145
		c0.353,0.499,0.874,0.748,1.564,0.748c0.591,0,1.197-0.135,1.819-0.408v1.019C250.905,117.323,250.307,117.455,249.586,117.455"/>
	<polygon clip-path="url(#SVGID_2_)" fill="#552670" points="257.201,109.729 258.38,109.729 255.316,113.391 258.633,117.316 
		257.376,117.316 254.137,113.474 254.137,117.316 253.063,117.316 253.063,109.729 254.137,109.729 254.137,113.418 	"/>
	<path clip-path="url(#SVGID_2_)" fill="#552670" d="M266.073,113.515c0,1.238-0.292,2.204-0.875,2.898
		c-0.581,0.694-1.387,1.041-2.414,1.041c-0.635,0-1.198-0.159-1.691-0.477c-0.492-0.318-0.871-0.776-1.139-1.371
		c-0.269-0.595-0.402-1.292-0.402-2.091c0-1.236,0.289-2.201,0.868-2.89c0.578-0.691,1.382-1.036,2.408-1.036
		c0.994,0,1.782,0.354,2.368,1.061C265.781,111.355,266.073,112.311,266.073,113.515 M260.666,113.515
		c0,0.97,0.182,1.708,0.544,2.216c0.362,0.507,0.896,0.762,1.6,0.762s1.238-0.254,1.603-0.759c0.365-0.506,0.548-1.246,0.548-2.219
		c0-0.964-0.183-1.697-0.548-2.198c-0.364-0.5-0.903-0.75-1.615-0.75c-0.704,0-1.236,0.247-1.593,0.741
		C260.845,111.801,260.666,112.538,260.666,113.515"/>
	<path clip-path="url(#SVGID_2_)" fill="#552670" d="M268.969,109.729v4.811l-0.047,1.259l-0.02,0.396l3.84-6.466h1.342v7.587
		h-1.004v-4.639l0.019-0.914l0.033-0.9l-3.834,6.453h-1.341v-7.587H268.969z M270.995,108.724c-0.799,0-1.382-0.164-1.749-0.494
		c-0.367-0.331-0.571-0.874-0.614-1.63h1.01c0.038,0.479,0.156,0.814,0.354,1.003c0.195,0.19,0.537,0.283,1.026,0.283
		c0.444,0,0.773-0.101,0.986-0.303c0.213-0.204,0.345-0.531,0.392-0.983h1.018c-0.054,0.729-0.27,1.265-0.654,1.609
		C272.377,108.552,271.789,108.724,270.995,108.724"/>
	<path clip-path="url(#SVGID_2_)" fill="#552670" d="M280.882,117.455c-0.72,0-1.336-0.131-1.845-0.394v-1.019
		c0.26,0.106,0.54,0.2,0.841,0.283c0.304,0.083,0.65,0.125,1.043,0.125c0.751,0,1.33-0.214,1.739-0.643
		c0.407-0.43,0.634-1.071,0.677-1.925h-3.594v-0.978h3.58c-0.069-0.792-0.286-1.374-0.65-1.743c-0.365-0.369-0.894-0.554-1.59-0.554
		c-0.444,0-0.993,0.125-1.646,0.374l-0.303-0.97c0.236-0.121,0.532-0.221,0.886-0.301c0.354-0.081,0.704-0.122,1.05-0.122
		c1.105,0,1.945,0.339,2.52,1.015c0.574,0.676,0.861,1.652,0.861,2.925c0,1.242-0.313,2.207-0.936,2.894
		C282.891,117.11,282.014,117.455,280.882,117.455"/>
	<path clip-path="url(#SVGID_2_)" fill="#552670" d="M289.172,117.455c-1.028,0-1.823-0.338-2.386-1.014
		c-0.564-0.677-0.846-1.633-0.846-2.871c0-1.269,0.286-2.25,0.858-2.941c0.571-0.693,1.387-1.04,2.444-1.04
		c0.341,0,0.683,0.04,1.023,0.118s0.608,0.171,0.803,0.277l-0.331,0.976c-0.237-0.102-0.496-0.186-0.776-0.252
		c-0.28-0.067-0.528-0.101-0.745-0.101c-1.441,0-2.163,0.983-2.163,2.95c0,0.932,0.177,1.648,0.528,2.145
		c0.353,0.499,0.874,0.748,1.563,0.748c0.592,0,1.198-0.135,1.818-0.408v1.019C290.49,117.323,289.893,117.455,289.172,117.455"/>
	<polygon clip-path="url(#SVGID_2_)" fill="#552670" points="297.435,110.711 295.129,110.711 295.129,117.317 294.055,117.317 
		294.055,110.711 291.775,110.711 291.775,109.729 297.435,109.729 	"/>
	<path clip-path="url(#SVGID_2_)" fill="#552670" d="M301.837,117.455c-1.048,0-1.876-0.341-2.482-1.024
		c-0.606-0.684-0.911-1.631-0.911-2.846c0-1.223,0.284-2.194,0.847-2.915c0.563-0.719,1.318-1.08,2.271-1.08
		c0.888,0,1.592,0.314,2.109,0.939c0.519,0.625,0.777,1.45,0.777,2.476v0.726h-4.888c0.021,0.892,0.23,1.567,0.631,2.029
		c0.398,0.461,0.961,0.692,1.687,0.692c0.764,0,1.521-0.171,2.267-0.512v1.023c-0.381,0.176-0.74,0.302-1.078,0.378
		C302.727,117.417,302.316,117.455,301.837,117.455 M301.547,110.552c-0.57,0-1.024,0.199-1.363,0.597
		c-0.339,0.396-0.538,0.946-0.6,1.648h3.711c0-0.725-0.151-1.28-0.453-1.666C302.54,110.745,302.107,110.552,301.547,110.552"/>
	<polygon clip-path="url(#SVGID_2_)" fill="#552670" points="311.065,110.711 308.76,110.711 308.76,117.317 307.686,117.317 
		307.686,110.711 305.406,110.711 305.406,109.729 311.065,109.729 	"/>
	<polygon clip-path="url(#SVGID_2_)" fill="#552670" points="313.481,109.729 313.481,114.54 313.435,115.8 313.416,116.195 
		317.256,109.729 318.598,109.729 318.598,117.316 317.594,117.316 317.594,112.677 317.611,111.765 317.645,110.863 
		313.811,117.316 312.47,117.316 312.47,109.729 	"/>
	<polygon clip-path="url(#SVGID_2_)" fill="#552670" points="325.013,109.729 326.192,109.729 323.13,113.391 326.445,117.316 
		325.188,117.316 321.95,113.474 321.95,117.316 320.875,117.316 320.875,109.729 321.95,109.729 321.95,113.418 	"/>
	<polygon clip-path="url(#SVGID_2_)" fill="#552670" points="328.771,109.729 328.771,114.54 328.725,115.8 328.705,116.195 
		332.545,109.729 333.886,109.729 333.886,117.316 332.882,117.316 332.882,112.677 332.901,111.765 332.934,110.863 
		329.101,117.316 327.76,117.316 327.76,109.729 	"/>
	<path clip-path="url(#SVGID_2_)" fill="#562672" d="M68.312,64.446h-1.478c-0.385,0-0.699-0.315-0.699-0.699v-7.975
		c0-0.385,0.314-0.7,0.699-0.7h1.478c0.385,0,0.699,0.315,0.699,0.7v7.975C69.011,64.131,68.697,64.446,68.312,64.446"/>
	<path clip-path="url(#SVGID_2_)" fill="#562672" d="M75.093,64.446h-1.478c-0.385,0-0.699-0.315-0.699-0.699v-7.975
		c0-0.385,0.314-0.7,0.699-0.7h1.478c0.385,0,0.699,0.315,0.699,0.7v7.975C75.792,64.131,75.478,64.446,75.093,64.446"/>
	
		<path clip-path="url(#SVGID_2_)" fill="none" stroke="#562671" stroke-width="2" stroke-linecap="round" stroke-linejoin="round" stroke-miterlimit="10" d="
		M68.528,104.019c0,0,1.009,7.676,10.09,8.188c9.081,0.512,10.594-18.423,10.594-18.423"/>
	
		<line clip-path="url(#SVGID_2_)" fill="none" stroke="#562671" stroke-linecap="round" stroke-miterlimit="10" x1="120.746" y1="18.417" x2="120.746" y2="118.251"/>
</g>
</svg>
