<svg xmlns="http://www.w3.org/2000/svg" xmlns:xlink="http://www.w3.org/1999/xlink" width="349" height="124">
    <defs>
        <path id="a" d="M0-4h1000V996H0z"/>
    </defs>
    <clipPath id="b">
        <use xlink:href="#a" overflow="visible"/>
    </clipPath>
    <linearGradient id="c" gradientUnits="userSpaceOnUse" x1="-5.577" y1="1001.108" x2="-4.578" y2="1001.108" gradientTransform="matrix(56.3433 0 0 -56.3433 325.938 56476.238)">
        <stop offset="0" stop-color="#4f2c5d"/>
        <stop offset=".098" stop-color="#4f2c5d"/>
        <stop offset=".971" stop-color="#857cb9"/>
        <stop offset="1" stop-color="#857cb9"/>
    </linearGradient>
    <path clip-path="url(#b)" fill="url(#c)" d="M67.355 32.639c-.054.045-3.078 2.555-8.558 2.556-3.95.001-9.149-1.312-15.365-5.728l-.04-.031c-.003-.019-6.605-5.745-13.913-5.724-4.936.019-10.233 2.514-14.337 11.398l-.454-.208.458.198c-.005.012-1.956 4.496-1.957 13.414.001 12.217 3.714 32.644 21.446 60.675.013.028 5.189 8.1 11.729 8.039 3.256-.004 7-1.912 10.875-8.038a.501.501 0 01.846.534c-3.953 6.281-8.029 8.508-11.722 8.504-7.356-.062-12.529-8.487-12.575-8.505-17.812-28.16-21.598-48.786-21.597-61.209 0-9.066 2.015-13.756 2.039-13.81l.004-.011c4.168-9.126 9.933-12 15.246-11.981 7.82.021 14.529 5.951 14.571 5.972l-.33.376.29-.408c6.083 4.318 11.061 5.542 14.786 5.543 5.163.001 7.885-2.349 7.917-2.323a.5.5 0 11.641.767z"/>
    <linearGradient id="d" gradientUnits="userSpaceOnUse" x1="-6.141" y1="1001.624" x2="-5.141" y2="1001.624" gradientTransform="matrix(51.1775 0 0 -51.1775 363.625 51312.355)">
        <stop offset="0" stop-color="#4f2c5d"/>
        <stop offset=".098" stop-color="#4f2c5d"/>
        <stop offset=".971" stop-color="#857cb9"/>
        <stop offset="1" stop-color="#857cb9"/>
    </linearGradient>
    <path clip-path="url(#b)" fill="url(#d)" d="M57.688 24.926c6.183-4.513 12.015-6.486 17.273-6.486 15.188.039 25.075 16.293 25.1 33.573 0 4.924-.803 9.946-2.526 14.726-2.173 6.027-5.837 11.785-11.36 15.095-3.81 2.279-8.215 3.209-12.623 3.209-1.913 0-3.827-.175-5.697-.493-6.175-1.05-11.971-3.524-17.668-5.958a.499.499 0 11.393-.919c5.696 2.436 11.423 4.87 17.442 5.892 1.818.309 3.678.479 5.529.479 4.269 0 8.491-.902 12.109-3.068 5.247-3.136 8.813-8.688 10.934-14.575 1.68-4.663 2.466-9.571 2.466-14.387-.003-16.971-9.742-32.54-24.1-32.573-5.003 0-10.626 1.875-16.684 6.294a.5.5 0 11-.588-.809z"/>
    <path clip-path="url(#b)" stroke-miterlimit="10" stroke-linejoin="round" stroke-linecap="round" stroke-width="2" stroke="#562672" fill="none" d="M52.11 73.005l-4.601 7.918"/>
    <path clip-path="url(#b)" fill="#562671" d="M152 52.023c.218 3.947.354 6.751.408 8.411.218 5.444 1.062 9.296 2.532 11.555 2.041 3.049 4.614 3.702 7.717 1.96 1.17-.654 2.191-1.552 3.062-2.695.817-1.088 1.238-2.054 1.265-2.899.164-.789.585-1.115 1.267-.979.326.054.639.19.938.408.328.49.34 1.252.041 2.286-.272 1.089-.816 2.164-1.632 3.225-2.07 2.75-4.764 4.124-8.085 4.124-3.103 0-5.458-1.619-7.064-4.858-1.552-3.184-2.423-8.683-2.613-16.495-.055-2.477-.04-5.417.041-8.819.082-4.029.123-6.111.123-6.247 0-7.921.979-14.196 2.939-18.823.707-1.633 1.919-2.925 3.634-3.879 2.041-1.143 4.178-1.252 6.41-.327 2.477 1.008 4.042 2.587 4.696 4.737.516 1.714.504 2.844-.041 3.388-.244.245-.572.273-.98.082-.435-.19-.639-.503-.612-.939.054-1.333-.355-2.477-1.225-3.43-1.09-1.17-2.681-1.809-4.777-1.919-2.831-.163-4.805 1.334-5.921 4.491-1.17 3.349-1.851 6.194-2.041 8.535-.219 2.531-.327 6.899-.327 13.105 0 1.144.082 3.145.245 6.002"/>
    <path clip-path="url(#b)" fill="#562671" d="M198.342 22.34c-.218 3.158-.327 5.186-.327 6.083 0 1.117.041 3.294.123 6.533.082 4.193.136 7.54.163 10.044.108 8.656.163 13.393.163 14.209v12.616c0 3.131-.122 4.846-.367 5.145-.272.354-.626.504-1.062.449-.463-.082-.79-.367-.979-.857v-5.757l.163-26.09c.081-6.016.095-9.555.041-10.616.026.408.013-.858-.041-3.797 0-1.688-.123-2.45-.367-2.287-.545.3-1.797 3.049-3.757 8.248-1.878 4.873-2.75 7.159-2.613 6.859-1.089 2.505-1.933 3.756-2.531 3.756-.763 0-2.396-3.47-4.899-10.411-2.423-6.777-3.797-9.595-4.124-8.452-.272 1.061-.408 6.221-.408 15.474l.204 24.907.408 6.941c0 1.361-.422 2.041-1.266 2.041-.598 0-.994-.449-1.183-1.348-.137-.625-.204-1.768-.204-3.429l.244-11.881-.326-15.924.245-19.762c0-4.844-.028-7.104-.082-6.777.082-.544.422-.816 1.02-.816.599 0 .981.176 1.144.53l1.265 3.757c.925 2.668 1.634 4.64 2.124 5.92 2.095 5.363 3.443 8.915 4.042 10.656.598 1.715 1.006 2.805 1.225 3.266.435.844.774 1.021 1.021.532a48.272 48.272 0 002.98-6.615c1.878-5.171 2.926-8.111 3.144-8.819.245-.817.681-2.395 1.307-4.736.545-1.988.898-3.212 1.062-3.675.245-.571.694-.844 1.347-.816.627.027 1.021.258 1.186.693.104.272.078 1.676-.085 4.206"/>
    <path clip-path="url(#b)" fill="#562671" d="M226.188 75.623c0 .518-.081.913-.245 1.185-.271.435-.667.68-1.184.734-1.116.109-1.633-.148-1.552-.775.735-4.682.531-9.391-.612-14.127 0-.381-1.402-.817-4.205-1.307-2.804-.516-5.146-.312-7.023.613-.571.272-1.021 1.224-1.347 2.858-.763 3.511-1.185 6.288-1.266 8.329-.027.49-.041 1.062-.041 1.715.026.816.041 1.279.041 1.389-.027.843-.191 1.265-.49 1.265-.926 0-1.579-.327-1.96-.98-.245-.408.19-3.988 1.307-10.739.19-1.224.626-4.532 1.307-9.92.626-5.2 1.17-9.065 1.633-11.596.19-1.198.925-6.016 2.205-14.454.326-2.286.585-3.783.775-4.491a81.48 81.48 0 01.857-3.267c.844-2.994 1.606-4.491 2.287-4.491.789 0 1.47.831 2.041 2.491 1.062 3.076 1.77 5.702 2.123 7.88.108.571.49 2.653 1.144 6.247.49 2.722.762 4.423.816 5.103.055.599.218 2.097.49 4.492.354 3.102.639 5.674.857 7.716a664.212 664.212 0 012.041 23.314v.816zm-5.716-39.197c-1.334-9.826-2.546-14.576-3.634-14.249-.272.055-.816 2.464-1.633 7.227-.082.517-.409 2.177-.98 4.981a397.433 397.433 0 00-1.429 7.227c-.354 2.041-.763 4.818-1.226 8.329-.381 3.348-.64 5.376-.775 6.084-.245 1.142-.341 1.973-.286 2.49.055.517.286.804.694.857 7.35.163 11.024-.122 11.024-.857.082-5.416-.503-12.779-1.755-22.089"/>
    <path clip-path="url(#b)" fill="#562671" d="M236.109 19.481c.026.708.014 3.553-.041 8.534l-.245 12.044-.326 25.07c0 3.158.041 4.832.122 5.022.136.382.449-.259.939-1.919.162-.544.354-1.279.571-2.205.3-1.115.477-1.768.531-1.96l1.062-4.205a340.258 340.258 0 011.756-6.573 306.87 306.87 0 011.837-6.615c.708-2.504 1.155-4.11 1.348-4.818.245-.898 1.088-4.41 2.531-10.534 1.442-6.043 2.19-9.159 2.245-9.349.79-2.831 1.565-4.233 2.328-4.206.869 0 1.307 1.102 1.307 3.307 0 1.171.026 6.029.081 14.576v10.166l.123 27.765c0 1.905-.096 3.035-.286 3.389-.19.299-.531.435-1.021.408a1.512 1.512 0 01-1.184-.735c-.027-.082 0-3.715.082-10.902.054-3.619.081-7.58.081-11.881V32.506c0-.654.068-2.082.204-4.287.109-1.851.137-3.062.082-3.634-.082-.707-.313-.544-.694.49-.3.844-.572 1.811-.816 2.9-.055.217-1.034 5.048-2.939 14.494-.382 1.96-3.104 11.99-8.166 30.091-.899 3.24-1.62 4.859-2.164 4.859-.763 0-1.279-.626-1.552-1.878-.081-.327-.177-1.607-.285-3.838-.056-.626-.056-1.579 0-2.858.081-1.661.122-2.695.122-3.104 0-.544-.014-1.686-.041-3.43-.027-1.55-.027-2.639 0-3.265.136-4.491.204-7.281.204-8.37-.081-18.483-.122-28.499-.122-30.051 0-1.823.435-2.735 1.307-2.735.679.001 1.019.53 1.019 1.591M247.991 4.58c-.627-.108-1.321.681-2.083 2.368a212.996 212.996 0 01-1.715 4.205c-.436 1.144-.723 1.688-.857 1.633-.163 0-1.156-1.715-2.98-5.144-.816-1.416-1.497-2.354-2.041-2.817-.49-.463-.885-.463-1.185 0-.137.191.027.803.49 1.837.136.3.367.735.694 1.307 2.667 4.845 4.191 7.404 4.572 7.675.164.137.327.191.49.164h.041c.299 0 .571-.205.816-.613.163-.245.299-.475.408-.694l.735-1.388c2.204-4.328 3.334-6.791 3.389-7.39.084-.707-.176-1.088-.774-1.143"/>
    <path clip-path="url(#b)" fill="#562671" d="M265.426 30.833c-.109-4.572.462-7.702 1.715-9.391 1.496-1.986 3.77-3.143 6.818-3.47 4.137-.435 6.764.068 7.88 1.51.626.817.939 2.968.939 6.452 0 .599.095 2.477.285 5.634.19 3.403.313 5.785.368 7.146.136 5.906.204 11.595.204 17.066 0 3.403-.027 7.05-.082 10.943 0 1.089-.014 2.313-.041 3.674a153.34 153.34 0 00-.04 1.837c0 .328.026.953.081 1.878.055.953.082 1.593.082 1.919 0 .437-.15.79-.449 1.063-.245.244-.477.352-.694.326-.816-.055-1.266-.449-1.348-1.184-.055-.653-.055-2.205 0-4.655.327-14.998.436-23.763.327-26.294-.354-7.758-.545-11.704-.571-11.841-.082-.761-.123-1.945-.123-3.551.027-2.069.027-3.403 0-4.002-.08-3.076-.395-4.873-.938-5.39-.735-.707-2.858-.816-6.37-.326-2.041.3-3.62 1.198-4.736 2.694-.653.872-1.021 2.001-1.103 3.39-.027.381-.04.966-.04 1.755 0 .762-.027 1.334-.082 1.714-.137 1.471-.137 4.424 0 8.861l.041 4.777c.136 5.117.177 8.819.122 11.106 0 .79-.027 2.722-.081 5.797-.027 2.777-.056 5.159-.082 7.146-.027 2.231-.681 4.232-1.96 6.002-.844 1.116-1.688 1.905-2.531 2.368-1.905 1.062-3.212 1.592-3.92 1.592-1.552 0-2-.422-1.347-1.266.217-.271.789-.638 1.715-1.102 1.197-.572 2.066-1.062 2.612-1.47 2.286-1.605 3.39-3.933 3.308-6.981-.027-1.852.014-5.186.122-10.004-.027-9.772-.04-14.903-.04-15.393l-.041-10.33z"/>
    <path clip-path="url(#b)" fill="#847CB9" d="M293.878 39.389c0 .81-.031 4.06-.093 9.753l-.233 13.766c-.25 5.35-.218 8.461.093 9.332.124.436.622-.591 1.493-3.08l1.913-5.599c.28-.747.918-2.691 1.914-5.833.995-3.08 1.663-5.055 2.006-5.927.497-1.243 1.136-2.986 1.913-5.225.716-2.116 1.182-3.438 1.4-3.967.124-.248.325-.762.606-1.539.28-.747.514-1.307.7-1.681.559-1.307 1.103-1.96 1.633-1.96.497 0 .777.405.84 1.214.03.467.03 1.369 0 2.706 0 1.338.17 6.829.514 16.472l-.187 15.258c0 2.272-.063 3.532-.188 3.781-.187.373-.451.559-.793.559-.404 0-.746-.249-1.026-.747-.031-.061 0-4.215.094-12.458.062-3.763.015-7.077-.141-9.939 0-6.159.016-9.161.047-9.006-.063-.715-.265-.528-.606.559-.653 1.992-1.059 3.143-1.214 3.454a139.204 139.204 0 00-4.013 10.406c-.218.591-.918 2.644-2.1 6.159-.871 2.613-1.54 4.542-2.008 5.786-1.337 3.64-2.441 5.46-3.312 5.46-.653 0-1.09-.56-1.307-1.681-.031-.31-.125-1.943-.28-4.899-.063-.715-.063-1.975 0-3.779.094-2.333.141-3.687.141-4.06.092-14.154.14-21.449.14-21.885 0-1.369.062-2.24.187-2.613.124-.404.388-.606.793-.606.685 0 1.043.606 1.074 1.819"/>
    <path clip-path="url(#b)" fill="#562671" d="M331.255 75.787c-2.069-4.11-4.124-8.969-6.166-14.576-3.756-10.262-5.743-15.379-5.961-15.353-.381 0-.545.953-.49 2.859.027.435.068 1.279.123 2.531.054 1.089.082 1.878.082 2.368-.028 7.976-.123 12.998-.286 15.067-.055.598-.068 1.497-.041 2.694v2.858c-.055 2.123-.367 3.185-.939 3.185-.789 0-1.184-1.279-1.184-3.838 0-.599.041-2.042.122-4.328.108-2.422.177-4.778.204-7.064.027-1.769.082-4.273.164-7.512.108-2.995.163-4.75.163-5.267 0-.599-.109-5.676-.327-15.229-.218-9.473-.326-14.386-.326-14.741 0-.761.395-1.278 1.184-1.55.708-.218 1.211-.096 1.511.367.055.082.082 3.008.082 8.778-.953 10.234-1.075 15.325-.367 15.271.544-.083 2.218-2.941 5.021-8.575.735-1.497 1.606-3.266 2.613-5.308a499.36 499.36 0 012.042-4.164c2.068-4.246 3.43-6.369 4.083-6.369.789 0 1.184.408 1.184 1.224-.027.382-.395 1.144-1.103 2.286-.844 1.47-1.334 2.355-1.47 2.655-.218.462-.749 1.415-1.593 2.858-.816 1.442-1.306 2.354-1.471 2.735-4.627 10.017-6.954 14.808-6.98 14.372.026.899 1.741 5.879 5.145 14.944 1.144 3.076 2.735 6.655 4.777 10.738 1.741 3.43 2.64 5.376 2.694 5.839.19 1.089-.109 1.715-.898 1.878-.463.081-.994-.463-1.592-1.633"/>
    <path clip-path="url(#b)" fill="#552670" d="M157.444 102.866h-1.19v-2.718h-6.477v-7.861h1.191v6.836h4.175v-6.836h1.189v6.836h1.112z"/>
    <path clip-path="url(#b)" fill="#552670" d="M162.293 100.291c-1.161 0-2.078-.354-2.751-1.062-.671-.708-1.008-1.69-1.008-2.948 0-1.267.313-2.273.938-3.02.623-.745 1.46-1.119 2.514-1.119.985 0 1.764.325 2.337.973.574.647.861 1.502.861 2.565v.752h-5.415c.023.924.257 1.625.699 2.102.442.478 1.065.717 1.868.717a6.35 6.35 0 002.512-.53v1.06c-.422.183-.82.313-1.195.392a6.79 6.79 0 01-1.36.118m-.322-7.152c-.631 0-1.134.207-1.51.618-.375.411-.597.979-.663 1.707h4.111c0-.751-.168-1.326-.503-1.726s-.814-.599-1.435-.599"/>
    <path clip-path="url(#b)" fill="#552670" d="M168.404 92.287v3.291h4.405v-3.291H174v7.86h-1.191v-3.543h-4.405v3.543h-1.191v-7.86z"/>
    <path clip-path="url(#b)" fill="#552670" d="M181.824 93.304h-2.553v6.844h-1.19v-6.844h-2.525v-1.017h6.268z"/>
    <path clip-path="url(#b)" fill="#552670" d="M187.039 100.291c-.512 0-.979-.094-1.402-.284a2.64 2.64 0 01-1.066-.871h-.086c.058.459.086.895.086 1.306v3.235h-1.19V92.286h.968l.165 1.076h.057c.307-.43.662-.742 1.069-.933.407-.191.873-.287 1.399-.287 1.042 0 1.847.356 2.414 1.069.566.712.85 1.712.85 2.997 0 1.292-.288 2.295-.864 3.01-.578.716-1.376 1.073-2.4 1.073m-.172-7.137c-.804 0-1.385.222-1.743.666-.358.446-.542 1.153-.553 2.125v.264c0 1.106.184 1.896.553 2.372.368.475.958.713 1.771.713.68 0 1.212-.275 1.596-.824.386-.551.578-1.308.578-2.274 0-.981-.192-1.733-.578-2.255-.384-.525-.927-.787-1.624-.787"/>
    <path clip-path="url(#b)" fill="#552670" d="M203.027 102.865h-1.154v-2.718h-5.494v2.718h-1.148v-3.744h.616c.642-.871 1.144-1.891 1.507-3.062.363-1.172.552-2.43.567-3.773h3.98v6.835h1.126v3.744zm-2.273-3.743v-5.896h-1.765a13.206 13.206 0 01-.613 3.225c-.348 1.087-.778 1.978-1.295 2.671h3.673z"/>
    <path clip-path="url(#b)" fill="#552670" d="M207.918 100.291c-1.161 0-2.077-.354-2.75-1.062-.672-.708-1.009-1.69-1.009-2.948 0-1.267.313-2.273.938-3.02.624-.745 1.461-1.119 2.515-1.119.984 0 1.764.325 2.337.973.574.647.861 1.502.861 2.565v.752h-5.415c.023.924.257 1.625.699 2.102s1.064.717 1.867.717c.848 0 1.685-.177 2.512-.53v1.06a6.258 6.258 0 01-1.194.392c-.378.078-.83.118-1.361.118m-.322-7.152c-.63 0-1.134.207-1.509.618-.376.411-.597.979-.664 1.707h4.11c0-.751-.168-1.326-.503-1.726s-.813-.599-1.434-.599"/>
    <path clip-path="url(#b)" fill="#552670" d="M218.14 93.304h-2.553v6.844h-1.191v-6.844h-2.525v-1.017h6.269z"/>
    <path clip-path="url(#b)" fill="#552670" d="M222.838 100.291c-1.139 0-2.02-.35-2.643-1.05-.624-.701-.937-1.691-.937-2.974 0-1.315.317-2.331.95-3.048.634-.717 1.536-1.076 2.708-1.076.378 0 .756.041 1.133.122.378.081.675.177.89.287l-.366 1.011a5.568 5.568 0 00-.86-.261 3.86 3.86 0 00-.824-.104c-1.598 0-2.396 1.019-2.396 3.056 0 .965.195 1.707.585 2.223.39.516.968.774 1.732.774.655 0 1.327-.14 2.015-.423v1.055c-.526.272-1.188.408-1.987.408"/>
    <path clip-path="url(#b)" fill="#552670" d="M231.272 92.287h1.306l-3.391 3.794 3.67 4.066h-1.391l-3.587-3.98v3.98h-1.19v-7.86h1.19v3.822z"/>
    <path clip-path="url(#b)" fill="#552670" d="M241.1 96.209c0 1.282-.323 2.283-.969 3.003-.645.719-1.537 1.078-2.675 1.078-.703 0-1.327-.165-1.872-.494-.546-.33-.965-.804-1.262-1.42-.298-.617-.445-1.339-.445-2.167 0-1.281.32-2.28.961-2.994.641-.715 1.53-1.073 2.668-1.073 1.101 0 1.974.367 2.622 1.098.647.732.972 1.722.972 2.969m-5.99 0c0 1.004.201 1.77.603 2.296.401.525.993.789 1.771.789.779 0 1.372-.262 1.775-.786.404-.524.606-1.291.606-2.299 0-.999-.202-1.758-.606-2.278-.403-.519-1-.777-1.789-.777-.78 0-1.368.255-1.765.768-.396.512-.595 1.274-.595 2.287"/>
    <path clip-path="url(#b)" fill="#552670" d="M244.307 92.287v4.984l-.051 1.304-.021.41 4.253-6.699h1.485v7.861h-1.111v-4.806l.021-.947.036-.933-4.246 6.686h-1.485v-7.861h1.119zm2.244-1.041c-.885 0-1.529-.17-1.937-.513-.406-.342-.633-.905-.681-1.688h1.118c.043.497.174.843.392 1.039.217.197.597.294 1.137.294.492 0 .856-.105 1.094-.315.236-.21.382-.55.434-1.018h1.127c-.059.755-.3 1.31-.725 1.667-.427.356-1.079.534-1.959.534"/>
    <path clip-path="url(#b)" fill="#552670" d="M257.433 92.287v4.984l-.052 1.306-.021.409 4.253-6.699h1.486v7.86h-1.113v-4.806l.022-.945.036-.934-4.247 6.685h-1.484v-7.86z"/>
    <path clip-path="url(#b)" fill="#552670" d="M275.815 94.259c0 .511-.147.899-.441 1.166-.293.265-.707.444-1.237.535v.064c.67.091 1.159.286 1.467.587.309.302.463.719.463 1.25 0 .731-.27 1.296-.807 1.693-.538.397-1.324.595-2.356.595h-3.465v-7.861h3.451c1.95-.001 2.925.656 2.925 1.971m-1.162.115c0-.383-.147-.654-.44-.814-.295-.16-.74-.241-1.338-.241h-2.246v2.217h2.016c.736 0 1.256-.09 1.558-.272.3-.183.45-.479.45-.89m.222 3.407c0-.425-.16-.735-.482-.928-.324-.194-.858-.291-1.604-.291h-2.16v2.589h2.188c1.372 0 2.058-.457 2.058-1.37"/>
    <path clip-path="url(#b)" fill="#552670" d="M279.294 95.55c1.487 0 2.23-.411 2.23-1.234 0-.775-.603-1.162-1.808-1.162a4.64 4.64 0 00-1.004.1c-.301.067-.695.201-1.184.402l-.423-.968a6.452 6.452 0 012.661-.545c.904 0 1.616.185 2.137.557.521.37.783.875.783 1.517 0 .88-.49 1.456-1.472 1.728v.057c.603.177 1.043.429 1.32.757s.416.738.416 1.23c0 .727-.293 1.293-.878 1.696-.587.405-1.396.605-2.428.605-1.135 0-2.009-.169-2.626-.509v-1.09c.875.412 1.76.617 2.653.617.688 0 1.209-.118 1.561-.355s.527-.577.527-1.022c0-.913-.744-1.371-2.23-1.371h-1.09v-1.01h.855z"/>
    <path clip-path="url(#b)" fill="#552670" d="M288.548 100.291c-.513 0-.979-.094-1.402-.284a2.631 2.631 0 01-1.065-.871h-.086c.058.459.086.895.086 1.306v3.235h-1.191V92.286h.969l.165 1.076h.058c.306-.43.662-.742 1.068-.933.406-.191.873-.287 1.399-.287 1.042 0 1.847.356 2.414 1.069.566.712.85 1.712.85 2.997 0 1.292-.288 2.295-.865 3.01-.578.716-1.378 1.073-2.4 1.073m-.172-7.137c-.804 0-1.386.222-1.743.666-.358.446-.543 1.153-.553 2.125v.264c0 1.106.184 1.896.553 2.372.368.475.958.713 1.771.713.679 0 1.212-.275 1.597-.824.385-.551.577-1.308.577-2.274 0-.981-.192-1.733-.577-2.255-.386-.525-.928-.787-1.625-.787"/>
    <path clip-path="url(#b)" fill="#552670" d="M300.677 96.209c0 1.282-.323 2.283-.969 3.003-.646.719-1.537 1.078-2.675 1.078-.703 0-1.327-.165-1.872-.494-.546-.33-.966-.804-1.264-1.42-.296-.617-.444-1.339-.444-2.167 0-1.281.32-2.28.962-2.994.641-.715 1.53-1.073 2.668-1.073 1.1 0 1.974.367 2.621 1.098.649.732.973 1.722.973 2.969m-5.989 0c0 1.004.201 1.77.603 2.296.4.525.992.789 1.771.789s1.372-.262 1.775-.786c.404-.524.606-1.291.606-2.299 0-.999-.202-1.758-.606-2.278-.403-.519-1-.777-1.79-.777-.779 0-1.368.255-1.764.768-.397.512-.595 1.274-.595 2.287"/>
    <path clip-path="url(#b)" fill="#552670" d="M305.906 100.291c-1.14 0-2.02-.35-2.644-1.05-.624-.701-.937-1.691-.937-2.974 0-1.315.316-2.331.95-3.048s1.536-1.076 2.708-1.076c.378 0 .755.041 1.133.122s.675.177.891.287l-.367 1.011a5.568 5.568 0 00-.86-.261 3.852 3.852 0 00-.824-.104c-1.598 0-2.396 1.019-2.396 3.056 0 .965.195 1.707.585 2.223.391.516.968.774 1.732.774.655 0 1.327-.14 2.015-.423v1.055c-.526.272-1.188.408-1.986.408"/>
    <path clip-path="url(#b)" fill="#552670" d="M315.617 100.147h-1.205v-6.843h-2.36c-.128 1.702-.308 3.054-.538 4.053-.229 1-.526 1.732-.893 2.195-.365.464-.831.696-1.395.696-.259 0-.464-.028-.617-.086v-.882c.105.029.225.043.358.043.55 0 .988-.581 1.313-1.743.325-1.162.571-2.926.738-5.293h4.598v7.86z"/>
    <path clip-path="url(#b)" fill="#552670" d="M324.928 96.209c0 1.282-.323 2.283-.969 3.003-.646.719-1.537 1.078-2.675 1.078-.703 0-1.327-.165-1.872-.494-.546-.33-.966-.804-1.262-1.42-.299-.617-.445-1.339-.445-2.167 0-1.281.32-2.28.961-2.994.641-.715 1.53-1.073 2.668-1.073 1.101 0 1.974.367 2.622 1.098.648.732.972 1.722.972 2.969m-5.99 0c0 1.004.201 1.77.603 2.296.4.525.993.789 1.771.789.779 0 1.372-.262 1.775-.786.404-.524.606-1.291.606-2.299 0-.999-.202-1.758-.606-2.278-.403-.519-1-.777-1.789-.777-.78 0-1.368.255-1.765.768-.396.512-.595 1.274-.595 2.287"/>
    <path clip-path="url(#b)" fill="#552670" d="M328.135 92.287v4.984l-.051 1.304-.021.41 4.253-6.699h1.485v7.861h-1.111v-4.806l.021-.947.036-.933-4.246 6.686h-1.485v-7.861h1.119zm2.244-1.041c-.885 0-1.53-.17-1.937-.513s-.633-.905-.681-1.688h1.118c.043.497.173.843.392 1.039.217.197.597.294 1.137.294.492 0 .856-.105 1.094-.315.236-.21.382-.55.434-1.018h1.127c-.059.755-.3 1.31-.725 1.667-.427.356-1.079.534-1.959.534"/>
    <path clip-path="url(#b)" fill="#552670" d="M152.581 117.455c-1.027 0-1.823-.338-2.386-1.014-.563-.677-.846-1.633-.846-2.871 0-1.269.286-2.25.859-2.941.572-.693 1.387-1.04 2.444-1.04.34 0 .682.04 1.023.118.34.078.609.171.803.277l-.332.976a4.675 4.675 0 00-.776-.252 3.261 3.261 0 00-.745-.101c-1.442 0-2.163.983-2.163 2.95 0 .932.175 1.648.527 2.145.353.499.875.748 1.564.748.591 0 1.198-.135 1.818-.408v1.019c-.472.262-1.069.394-1.79.394"/>
    <path clip-path="url(#b)" fill="#552670" d="M160.844 110.711h-2.305v6.606h-1.075v-6.606h-2.279v-.982h5.659z"/>
    <path clip-path="url(#b)" fill="#552670" d="M168.375 113.515c0 1.238-.292 2.204-.875 2.898-.582.694-1.388 1.041-2.415 1.041-.635 0-1.198-.159-1.69-.477-.492-.318-.872-.776-1.14-1.371s-.402-1.292-.402-2.091c0-1.236.289-2.201.868-2.89.578-.691 1.382-1.036 2.409-1.036.993 0 1.783.354 2.367 1.061.585.705.878 1.661.878 2.865m-5.407 0c0 .97.182 1.708.544 2.216.362.507.897.762 1.599.762.705 0 1.239-.254 1.604-.759.365-.506.547-1.246.547-2.219 0-.964-.183-1.697-.547-2.198-.365-.5-.903-.75-1.616-.75-.704 0-1.235.247-1.593.741-.36.493-.538 1.23-.538 2.207"/>
    <path clip-path="url(#b)" fill="#552670" d="M173.944 116.208l.2-.643.279-.818 1.924-5.005h1.365v7.574h-.952v-6.265l-.13.4-.375 1.061-1.832 4.804h-.9l-1.834-4.818a15.39 15.39 0 01-.472-1.447v6.265h-.958v-7.574h1.313l1.858 4.812c.188.508.359 1.059.514 1.654"/>
    <path clip-path="url(#b)" fill="#552670" d="M184.369 117.316l-.212-1.079h-.053c-.354.475-.707.796-1.059.965-.352.168-.791.252-1.317.252-.704 0-1.256-.192-1.655-.582-.399-.388-.599-.939-.599-1.655 0-1.532 1.146-2.334 3.439-2.409l1.205-.041v-.471c0-.595-.121-1.036-.36-1.319-.24-.284-.623-.427-1.148-.427-.592 0-1.263.194-2.008.583l-.331-.879c.35-.203.732-.363 1.151-.478a4.684 4.684 0 011.252-.173c.846 0 1.473.201 1.881.603.408.402.612 1.045.612 1.932v5.178h-.798zm-2.428-.81c.67 0 1.195-.196 1.577-.588.383-.393.574-.942.574-1.648v-.685l-1.075.049c-.855.031-1.472.173-1.849.425-.378.252-.566.643-.566 1.174 0 .416.117.731.353.949.235.216.564.324.986.324"/>
    <path clip-path="url(#b)" fill="#552670" d="M192.167 110.711h-2.306v6.606h-1.074v-6.606h-2.28v-.982h5.66z"/>
    <path clip-path="url(#b)" fill="#552670" d="M199.698 113.515c0 1.238-.292 2.204-.874 2.898-.583.694-1.388 1.041-2.415 1.041-.635 0-1.198-.159-1.691-.477-.492-.318-.871-.776-1.139-1.371-.269-.595-.401-1.292-.401-2.091 0-1.236.288-2.201.867-2.89.578-.691 1.382-1.036 2.409-1.036.992 0 1.781.354 2.367 1.061.585.705.877 1.661.877 2.865m-5.407 0c0 .97.182 1.708.544 2.216.362.507.896.762 1.599.762.704 0 1.239-.254 1.604-.759.365-.506.548-1.246.548-2.219 0-.964-.183-1.697-.548-2.198-.364-.5-.903-.75-1.615-.75-.704 0-1.236.247-1.593.741-.36.493-.539 1.23-.539 2.207"/>
    <path clip-path="url(#b)" fill="#552670" d="M206.874 117.316h-1.089v-6.605h-2.13c-.115 1.643-.278 2.947-.486 3.912-.208.965-.475 1.671-.806 2.119-.33.448-.751.672-1.261.672-.231 0-.417-.028-.556-.083v-.852c.095.028.201.042.324.042.495 0 .892-.561 1.185-1.682.294-1.122.516-2.824.667-5.109h4.151v7.586z"/>
    <path clip-path="url(#b)" fill="#552670" d="M215.279 113.515c0 1.238-.292 2.204-.875 2.898-.582.694-1.387 1.041-2.415 1.041-.635 0-1.198-.159-1.69-.477-.492-.318-.872-.776-1.14-1.371s-.402-1.292-.402-2.091c0-1.236.291-2.201.869-2.89.579-.691 1.382-1.036 2.409-1.036.993 0 1.781.354 2.365 1.061.586.705.879 1.661.879 2.865m-5.407 0c0 .97.181 1.708.543 2.216.361.507.896.762 1.601.762.703 0 1.237-.254 1.602-.759.365-.506.548-1.246.548-2.219 0-.964-.183-1.697-.548-2.198-.364-.5-.902-.75-1.615-.75-.704 0-1.235.247-1.594.741-.358.493-.537 1.23-.537 2.207"/>
    <path clip-path="url(#b)" fill="#552670" d="M221.438 110.711h-3.2v6.606h-1.075v-7.588h4.275z"/>
    <path clip-path="url(#b)" fill="#552670" d="M223.854 109.729v4.811l-.046 1.26-.02.395 3.84-6.466h1.341v7.587h-1.004v-4.639l.019-.912.033-.902-3.834 6.453h-1.341v-7.587z"/>
    <path clip-path="url(#b)" fill="#552670" d="M232.193 109.729v2.77c0 .885.472 1.33 1.418 1.33.393 0 .769-.065 1.128-.195.357-.129.763-.348 1.216-.657v-3.247h1.076v7.587h-1.076v-3.434c-.453.333-.872.566-1.259.702a3.936 3.936 0 01-1.312.205c-.708 0-1.263-.198-1.664-.595-.401-.398-.603-.936-.603-1.613v-2.853h1.076z"/>
    <path clip-path="url(#b)" fill="#552670" d="M242.307 117.455c-1.047 0-1.875-.341-2.482-1.024-.606-.684-.91-1.631-.91-2.846 0-1.223.282-2.194.847-2.915.562-.719 1.319-1.08 2.269-1.08.89 0 1.593.314 2.11.939s.778 1.45.778 2.476v.726h-4.89c.022.892.233 1.567.631 2.029.4.461.961.692 1.687.692.766 0 1.521-.171 2.268-.512v1.023a5.409 5.409 0 01-1.078.378c-.342.076-.75.114-1.23.114m-.291-6.903c-.569 0-1.023.199-1.362.597-.339.396-.539.946-.599 1.648h3.711c0-.725-.151-1.28-.455-1.666-.302-.386-.733-.579-1.295-.579"/>
    <path clip-path="url(#b)" fill="#552670" d="M249.586 117.455c-1.027 0-1.822-.338-2.386-1.014-.563-.677-.846-1.633-.846-2.871 0-1.269.286-2.25.859-2.941.571-.693 1.386-1.04 2.443-1.04.341 0 .683.04 1.023.118s.609.171.803.277l-.331.976a4.645 4.645 0 00-.776-.252 3.239 3.239 0 00-.744-.101c-1.442 0-2.164.983-2.164 2.95 0 .932.177 1.648.528 2.145.353.499.874.748 1.564.748.591 0 1.197-.135 1.819-.408v1.019c-.473.262-1.071.394-1.792.394"/>
    <path clip-path="url(#b)" fill="#552670" d="M257.201 109.729h1.179l-3.064 3.662 3.317 3.925h-1.257l-3.239-3.842v3.842h-1.074v-7.587h1.074v3.689z"/>
    <path clip-path="url(#b)" fill="#552670" d="M266.073 113.515c0 1.238-.292 2.204-.875 2.898-.581.694-1.387 1.041-2.414 1.041-.635 0-1.198-.159-1.691-.477-.492-.318-.871-.776-1.139-1.371-.269-.595-.402-1.292-.402-2.091 0-1.236.289-2.201.868-2.89.578-.691 1.382-1.036 2.408-1.036.994 0 1.782.354 2.368 1.061.585.705.877 1.661.877 2.865m-5.407 0c0 .97.182 1.708.544 2.216.362.507.896.762 1.6.762s1.238-.254 1.603-.759c.365-.506.548-1.246.548-2.219 0-.964-.183-1.697-.548-2.198-.364-.5-.903-.75-1.615-.75-.704 0-1.236.247-1.593.741-.36.493-.539 1.23-.539 2.207"/>
    <path clip-path="url(#b)" fill="#552670" d="M268.969 109.729v4.811l-.047 1.259-.02.396 3.84-6.466h1.342v7.587h-1.004v-4.639l.019-.914.033-.9-3.834 6.453h-1.341v-7.587h1.012zm2.026-1.005c-.799 0-1.382-.164-1.749-.494-.367-.331-.571-.874-.614-1.63h1.01c.038.479.156.814.354 1.003.195.19.537.283 1.026.283.444 0 .773-.101.986-.303.213-.204.345-.531.392-.983h1.018c-.054.729-.27 1.265-.654 1.609-.387.343-.975.515-1.769.515"/>
    <path clip-path="url(#b)" fill="#552670" d="M280.882 117.455c-.72 0-1.336-.131-1.845-.394v-1.019c.26.106.54.2.841.283.304.083.65.125 1.043.125.751 0 1.33-.214 1.739-.643.407-.43.634-1.071.677-1.925h-3.594v-.978h3.58c-.069-.792-.286-1.374-.65-1.743-.365-.369-.894-.554-1.59-.554-.444 0-.993.125-1.646.374l-.303-.97c.236-.121.532-.221.886-.301a4.697 4.697 0 011.05-.122c1.105 0 1.945.339 2.52 1.015.574.676.861 1.652.861 2.925 0 1.242-.313 2.207-.936 2.894-.624.688-1.501 1.033-2.633 1.033"/>
    <path clip-path="url(#b)" fill="#552670" d="M289.172 117.455c-1.028 0-1.823-.338-2.386-1.014-.564-.677-.846-1.633-.846-2.871 0-1.269.286-2.25.858-2.941.571-.693 1.387-1.04 2.444-1.04.341 0 .683.04 1.023.118s.608.171.803.277l-.331.976a4.675 4.675 0 00-.776-.252 3.247 3.247 0 00-.745-.101c-1.441 0-2.163.983-2.163 2.95 0 .932.177 1.648.528 2.145.353.499.874.748 1.563.748.592 0 1.198-.135 1.818-.408v1.019c-.472.262-1.069.394-1.79.394"/>
    <path clip-path="url(#b)" fill="#552670" d="M297.435 110.711h-2.306v6.606h-1.074v-6.606h-2.28v-.982h5.66z"/>
    <path clip-path="url(#b)" fill="#552670" d="M301.837 117.455c-1.048 0-1.876-.341-2.482-1.024-.606-.684-.911-1.631-.911-2.846 0-1.223.284-2.194.847-2.915.563-.719 1.318-1.08 2.271-1.08.888 0 1.592.314 2.109.939.519.625.777 1.45.777 2.476v.726h-4.888c.021.892.23 1.567.631 2.029.398.461.961.692 1.687.692a5.41 5.41 0 002.267-.512v1.023a5.43 5.43 0 01-1.078.378c-.34.076-.751.114-1.23.114m-.29-6.903c-.57 0-1.024.199-1.363.597-.339.396-.538.946-.6 1.648h3.711c0-.725-.151-1.28-.453-1.666-.302-.386-.735-.579-1.295-.579"/>
    <path clip-path="url(#b)" fill="#552670" d="M311.065 110.711h-2.305v6.606h-1.074v-6.606h-2.28v-.982h5.659z"/>
    <path clip-path="url(#b)" fill="#552670" d="M313.481 109.729v4.811l-.046 1.26-.019.395 3.84-6.466h1.342v7.587h-1.004v-4.639l.017-.912.034-.902-3.834 6.453h-1.341v-7.587z"/>
    <path clip-path="url(#b)" fill="#552670" d="M325.013 109.729h1.179l-3.062 3.662 3.315 3.925h-1.257l-3.238-3.842v3.842h-1.075v-7.587h1.075v3.689z"/>
    <path clip-path="url(#b)" fill="#552670" d="M328.771 109.729v4.811l-.046 1.26-.02.395 3.84-6.466h1.341v7.587h-1.004v-4.639l.019-.912.033-.902-3.833 6.453h-1.341v-7.587z"/>
    <path clip-path="url(#b)" fill="#562672" d="M68.312 64.446h-1.478a.701.701 0 01-.699-.699v-7.975c0-.385.314-.7.699-.7h1.478c.385 0 .699.315.699.7v7.975a.701.701 0 01-.699.699"/>
    <path clip-path="url(#b)" fill="#562672" d="M75.093 64.446h-1.478a.701.701 0 01-.699-.699v-7.975c0-.385.314-.7.699-.7h1.478c.385 0 .699.315.699.7v7.975a.701.701 0 01-.699.699"/>
    <path clip-path="url(#b)" stroke-miterlimit="10" d="M68.528 104.019s1.009 7.676 10.09 8.188c9.081.512 10.594-18.423 10.594-18.423" stroke-linejoin="round" stroke-linecap="round" stroke-width="2" stroke="#562671" fill="none"/>
    <path clip-path="url(#b)" stroke-miterlimit="10" stroke-linecap="round" stroke="#562671" fill="none" d="M120.746 18.417v99.834"/>
</svg>
